<svg xmlns="http://www.w3.org/2000/svg" width="179" height="62.622" viewBox="0 0 179 62.622"><g fill-rule="evenodd" clip-rule="evenodd"><path fill="#1A1A18" d="M98.833 62.41v-9.998h1.982v1.412c.405-.487.949-.883 1.626-1.179.678-.298 1.447-.446 2.312-.446.962 0 1.753.154 2.366.46.615.308 1.05.735 1.302 1.287 1.036-1.166 2.378-1.747 4.034-1.747 1.296 0 2.296.273 2.99.822.697.549 1.049 1.395 1.049 2.533v6.855h-2.208v-6.293c0-.675-.075-1.162-.217-1.461-.143-.299-.401-.537-.781-.72-.377-.183-.82-.272-1.326-.272-.92 0-1.682.234-2.287.699-.607.469-.907 1.217-.907 2.246v5.801h-2.208v-6.488c0-.752-.18-1.316-.539-1.693-.359-.376-.95-.564-1.765-.564a3.96 3.96 0 0 0-1.719.375c-.526.251-.907.617-1.146 1.102-.234.481-.352 1.18-.352 2.087v5.183h-2.206v-.001zm29.403-1.252c-.819.536-1.609.912-2.367 1.133a8.601 8.601 0 0 1-2.437.331c-1.43 0-2.53-.267-3.299-.803-.77-.532-1.155-1.217-1.155-2.048 0-.488.147-.935.436-1.34a3.214 3.214 0 0 1 1.142-.969 6.28 6.28 0 0 1 1.589-.556c.435-.087 1.091-.171 1.965-.255 1.781-.16 3.099-.355 3.939-.58.008-.23.013-.379.013-.441 0-.686-.209-1.171-.628-1.453-.563-.383-1.404-.572-2.517-.572-1.041 0-1.811.142-2.305.422-.496.278-.861.773-1.1 1.486l-2.157-.23c.196-.711.518-1.285.97-1.723s1.104-.771 1.957-1.008c.849-.234 1.84-.354 2.961-.354 1.111 0 2.019.1 2.717.302.694.202 1.209.453 1.535.759.327.305.557.69.69 1.156.07.287.108.809.108 1.557v2.248c0 1.569.047 2.562.138 2.982.088.422.271.822.54 1.207h-2.309a3.097 3.097 0 0 1-.426-1.251zm-.174-3.756c-.804.249-2.008.461-3.613.635-.911.1-1.556.213-1.932.337-.377.126-.665.309-.869.546a1.21 1.21 0 0 0-.31.803c0 .446.222.822.669 1.121s1.1.449 1.956.449c.85 0 1.605-.141 2.271-.427.661-.282 1.15-.672 1.46-1.162.238-.383.355-.944.355-1.687l.013-.615zm5.598 5.008v-9.998h1.981v1.531c.506-.711.975-1.179 1.405-1.404.431-.227.903-.34 1.418-.34.743 0 1.5.18 2.27.537l-.786 1.563a4.018 4.018 0 0 0-1.605-.347c-.48 0-.911.111-1.292.334a1.862 1.862 0 0 0-.814.924 5.152 5.152 0 0 0-.369 1.975v5.225h-2.208zm8.388 0V48.616h2.207v7.856l5.219-4.061h2.852l-4.968 3.715 5.47 6.283h-2.718l-4.324-5.108-1.53 1.144v3.965h-2.208zm21.416-3.236l2.283.232c-.355 1.017-1.021 1.81-1.99 2.371-.97.562-2.207.845-3.718.845-1.897 0-3.403-.45-4.516-1.349-1.112-.896-1.668-2.156-1.668-3.779 0-1.676.561-2.979 1.685-3.904 1.125-.928 2.584-1.391 4.379-1.391 1.735 0 3.152.453 4.252 1.361 1.099.908 1.651 2.188 1.651 3.834 0 .1-.004.251-.012.449h-9.697c.084 1.096.485 1.938 1.213 2.518.723.582 1.63.874 2.713.874.808 0 1.497-.165 2.066-.491.573-.327 1.025-.851 1.359-1.57zm-7.226-2.717h7.251c-.097-.841-.377-1.471-.832-1.892-.698-.651-1.61-.979-2.727-.979-1.012 0-1.86.26-2.55.78-.686.521-1.067 1.218-1.142 2.091zm17.09 4.441l.302 1.496c-.62.1-1.176.15-1.661.15-.798 0-1.417-.096-1.86-.292-.438-.196-.748-.45-.928-.767-.181-.318-.269-.986-.269-2.004v-5.762h-1.631V52.41h1.631v-2.473l2.208-1.019v3.491h2.208v1.309h-2.208v5.857c0 .484.037.796.117.934a.792.792 0 0 0 .377.332c.175.08.426.121.752.121.243.003.566-.019.962-.064z"/><path fill="#E2000F" d="M0 45.667V12.559h12.5c2.196 0 3.876.108 5.04.316 1.626.271 2.991.786 4.092 1.542 1.102.762 1.988 1.826 2.659 3.19.67 1.364 1.002 2.868 1.002 4.508 0 2.805-.894 5.187-2.689 7.128-1.788 1.95-5.033 2.921-9.718 2.921H4.393v13.502H0v.001zm4.393-17.386h8.554c2.835 0 4.839-.524 6.034-1.58 1.187-1.056 1.78-2.535 1.78-4.455 0-1.379-.347-2.565-1.048-3.552-.701-.986-1.626-1.641-2.767-1.958-.74-.193-2.104-.293-4.084-.293H4.393v11.838zm26.264 17.386V2.965L35.05.074v41.709h16.276v3.884H30.657zm25.994 0V12.559h23.905v3.884H61.043v10.173h18.265V30.5H61.043v11.283h20.299v3.884H56.651zm30.703 13.394V12.559h4.501l17.37 25.987V3.536l4.208-3.462v45.593h-4.5L91.562 19.681v42.632l-4.208-3.252zm60.65-13.394l12.7-33.108h4.817L179 45.667h-4.986l-3.83-10.034h-13.94l-3.592 10.034h-4.648zm9.525-13.595h11.282l-3.452-9.178c-1.04-2.79-1.826-5.095-2.373-6.913a46.92 46.92 0 0 1-1.826 6.373l-3.631 9.718zm-36.917 13.6V0l4.389 3.546v25.428l16.445-16.415h5.934l-13.887 13.425 14.488 19.683h-5.78l-11.783-16.708-5.417 5.24v11.468z"/></g></svg>