<svg xmlns="http://www.w3.org/2000/svg" width="62" height="61.472" viewBox="0 0 62 61.472"><path fill="#1A1A18" d="M23.188 16.653c-3.53 0-6.393 2.838-6.393 6.337s2.862 6.337 6.393 6.337c3.529 0 6.391-2.837 6.391-6.337s-2.861-6.337-6.391-6.337zm0 9.858c-1.962 0-3.551-1.576-3.551-3.521s1.591-3.521 3.551-3.521c1.962 0 3.552 1.576 3.552 3.521s-1.592 3.521-3.552 3.521zm15.624 5.633c-3.529 0-6.391 2.839-6.391 6.338 0 3.5 2.861 6.338 6.391 6.338 3.531 0 6.393-2.838 6.393-6.338-.001-3.5-2.864-6.338-6.393-6.338zm0 9.858c-1.962 0-3.55-1.575-3.55-3.521s1.59-3.521 3.55-3.521c1.962 0 3.552 1.575 3.552 3.521s-1.592 3.521-3.552 3.521z"/><path fill="#E2000F" d="M61.59 29.757l-7.864-7.799V9.612c0-.779-.637-1.408-1.421-1.408H39.85L31.985.407a1.402 1.402 0 0 0-1.973 0l-7.864 7.797H9.694c-.784 0-1.421.629-1.421 1.408V21.96L.408 29.758a1.376 1.376 0 0 0 0 1.957l7.865 7.797v12.35c0 .777.637 1.408 1.421 1.408h12.455l7.863 7.798c.547.54 1.43.54 1.973 0l7.865-7.798h12.455c.785 0 1.421-.631 1.421-1.408v-12.35l7.865-7.797a1.376 1.376 0 0 0-.001-1.958zm-10.705 9.146v11.549h-11.65l-8.012 7.943-8.01-7.943H11.115V38.456l-7.788-7.72 7.788-7.72V11.021h12.099l8.01-7.944 8.012 7.944h11.649V22.57l8.237 8.167-8.237 8.166z"/><path fill="#1A1A18" d="M45.673 15.798a1.407 1.407 0 0 0-1.991 0L15.8 43.681a1.407 1.407 0 1 0 1.99 1.992L45.673 17.79a1.41 1.41 0 0 0 0-1.992z"/></svg>