<svg id="Features-SVG" xmlns="http://www.w3.org/2000/svg" viewBox="0 0 2005.4 777"><defs><radialGradient id="Features-innerGradient" cx="430.551" cy="426.018" r="315.285" gradientTransform="matrix(2.8565 -.5119 1.0216 1.739 -364.766 -340.733)" gradientUnits="userSpaceOnUse"><stop offset="0" stop-color="#0072ff" stop-opacity=".2"/><stop offset="1" stop-color="#0072ff" stop-opacity="0"/></radialGradient><radialGradient id="Features-bottomGradient" cx="279.348" cy="483.35" r="459.41" gradientTransform="matrix(2.8947 -.4418 .494 .9873 -202.503 -91.663)" gradientUnits="userSpaceOnUse"><stop offset="0" stop-color="#0072ff"/><stop offset="1" stop-color="#0072ff" stop-opacity="0"/></radialGradient><linearGradient id="Features-rightGradient" gradientUnits="userSpaceOnUse" x1="1640.86" y1="373.64" x2="2001.559" y2="373.64" gradientTransform="matrix(1 0 0 -1 0 763.78)"><stop offset="0" stop-color="#fff" stop-opacity="0"/><stop offset="1" stop-color="#fff"/></linearGradient><linearGradient id="Features-dropletLineGradient" gradientUnits="userSpaceOnUse" x1="977.46" y1="777.341" x2="977.46" y2="510.841"><stop offset="0" stop-color="#0072ff" stop-opacity="0"/><stop offset="1" stop-color="#0072ff"/></linearGradient><linearGradient id="Features-leftGradient" gradientUnits="userSpaceOnUse" x1="1.359" y1="373.64" x2="362.06" y2="373.64" gradientTransform="matrix(1 0 0 -1 0 763.78)"><stop offset="0" stop-color="#fff"/><stop offset="1" stop-color="#fff" stop-opacity="0"/></linearGradient></defs><style>.Features-gradientGroup1{opacity:.6}.Features-gradientGroup2{opacity:.2}.Features-bottomGradientShape{fill:url(#Features-bottomGradient)}.Features-innerGradientShape{fill:url(#Features-innerGradient)}.Features-dottedWaveShape{fill:none;stroke:#c8e2ff;stroke-width:1.5;stroke-linecap:round;stroke-miterlimit:10;stroke-dasharray:0,5}.Features-blueStroke,.Features-dropletLine{fill:none;stroke:#0072ff;stroke-linecap:round;stroke-miterlimit:10}.Features-dropletLine{stroke:url(#Features-dropletLineGradient);stroke-width:1.5;stroke-dasharray:0,5}.Features-whiteWaveLine{fill:none;stroke:#fff;stroke-width:16;stroke-miterlimit:10}.Features-dot{fill:#0072ff}.Features-rightGradientShape{fill:url(#Features-rightGradient)}.Features-leftGradientShape{fill:url(#Features-leftGradient)}</style><g id="Gradient_Wave_Fill"><g class="Features-gradientGroup Features-gradientGroup1"><path class="Features-bottomGradientShape" d="M1917.4 109.1c-45.4 45.3-57.8 106.8-150 126.3-85.6 18.1-84.8 136-143.8 136-82 0-106 160-193 160-37 0-41-22-91-22-68 0-86 81-149 81-43 0-49-27-92-27s-65 32-116 32-62-41-140-41c-103 0-143 98-196 98-40 0-39-30-72-30-32 0-37 37-87 37-54.3 0-81-68-123-68-43 0-65.3 85.3-124 91-41.2 4-51.2-15-77.2-9-39.5 9.1-43.1 65.6-91 69-42 3-43.6-30-69.8-30l-.2 64h1999v-711c-3-.1-40.4.2-84 43.7z"/><path class="Features-innerGradientShape" d="M1916.4 109.1c-45.4 45.3-57.8 106.8-150 126.3-85.6 18.1-84.8 136-143.8 136-82 0-106 160-193 160-37 0-41-22-91-22-68 0-86 81-149 81-43 0-49-27-92-27s-65 32-116 32-62-41-140-41c-103 0-143 98-196 98-40 0-39-30-72-30-32 0-37 37-87 37-54.3 0-81-68-123-68-43 0-65.3 85.3-124 91-41.2 4-51.2-15-77.2-9-39.5 9.1-43.1 65.6-91 69-42 3-43.6-30-69.8-30l-.2 64h2000v-711c-3-.1-41.4.2-85 43.7z"/></g><g class="Features-gradientGroup Features-gradientGroup2"><path class="Features-bottomGradientShape" d="M1917.4 109.1c-45.4 45.3-57.8 106.8-150 126.3-85.6 18.1-84.8 136-143.8 136-82 0-106 160-193 160-37 0-41-22-91-22-68 0-86 81-149 81-43 0-49-27-92-27s-65 32-116 32-62-41-140-41c-103 0-143 98-196 98-40 0-39-30-72-30-32 0-37 37-87 37-54.3 0-81-68-123-68-43 0-65.3 85.3-124 91-41.2 4-51.2-15-77.2-9-39.5 9.1-43.1 65.6-91 69-42 3-43.6-30-69.8-30l-.2 64h1999v-711c-3-.1-40.4.2-84 43.7z"/><path class="Features-innerGradientShape" d="M1916.4 109.1c-45.4 45.3-57.8 106.8-150 126.3-85.6 18.1-84.8 136-143.8 136-82 0-106 160-193 160-37 0-41-22-91-22-68 0-86 81-149 81-43 0-49-27-92-27s-65 32-116 32-62-41-140-41c-103 0-143 98-196 98-40 0-39-30-72-30-32 0-37 37-87 37-54.3 0-81-68-123-68-43 0-65.3 85.3-124 91-41.2 4-51.2-15-77.2-9-39.5 9.1-43.1 65.6-91 69-42 3-43.6-30-69.8-30l-.2 64h2000v-711c-3-.1-41.4.2-85 43.7z"/></g></g><path class="Features-dottedWaveShape" d="M1.6 748.4c95.2 0 78.8-77 147.3-88 37-5.9 58 22 90.7 22 59 0 78.4-145.9 121.4-145.9 42 0 71.2 162 125.6 162 50 0 55-104 87-104 33 0 32 30.3 72 30.3 53 0 83.1-88.4 166.5-88.4 80.1 0 99.4 84.1 148.5 97.7 52 14.4 94-43.2 137-43.2s49 31.4 92 31.4c63 0 76-113.3 141-133.2 43-13.2 62 19.6 99 19.6 87 0 111-182.5 193-182.5 59 0 71.2-202.3 136-217.2 46.8-10.7 89.8 13.3 136.8-29.7 44.8-41 68.4-64 106.2-64" id="Background_Dotted_Wave"/><g class="Features-dropletLineGroup" id="Features-dropletLine-1"><path class="Features-blueStroke" d="M222.9 603.2c0-5.2 6.9-10.7 6.9-10.7s6.9 5.7 6.9 10.7c0 3.8-3.1 6.9-6.9 6.9s-6.9-3.1-6.9-6.9z"/><path class="Features-dropletLine" d="M229.7 609.6v167"/></g><g class="Features-dropletLineGroup" id="Features-dropletLine-2"><path class="Features-blueStroke" d="M480.9 625.2c0-5.2 6.9-10.7 6.9-10.7s6.9 5.7 6.9 10.7c0 3.8-3.1 6.9-6.9 6.9s-6.9-3.1-6.9-6.9z"/><path class="Features-dropletLine" d="M487.7 635.7v140.9"/></g><g class="Features-dropletLineGroup" id="Features-dropletLine-3"><path class="Features-blueStroke" d="M644.9 569.2c0-5.2 6.9-10.7 6.9-10.7s6.9 5.7 6.9 10.7c0 3.8-3.1 6.9-6.9 6.9s-6.9-3.1-6.9-6.9z"/><path class="Features-dropletLine" d="M651.7 582.6v194"/></g><g class="Features-dropletLineGroup" id="Features-dropletLine-4"><path class="Features-blueStroke" d="M970.7 504.5c0-5.2 6.9-10.7 6.9-10.7s6.9 5.7 6.9 10.7c0 3.8-3.1 6.9-6.9 6.9-3.7 0-6.9-3.1-6.9-6.9z"/><path class="Features-dropletLine" d="M977.5 511.6v265"/></g><g class="Features-dropletLineGroup" id="Features-dropletLine-5"><path class="Features-blueStroke" d="M1189.9 545.1c0-5.2 6.9-10.7 6.9-10.7s6.9 5.7 6.9 10.7c0 3.8-3.1 6.9-6.9 6.9s-6.9-3-6.9-6.9z"/><path class="Features-dropletLine" d="M1196.7 552.3v224.3"/></g><g class="Features-dropletLineGroup" id="Features-dropletLine-6"><path class="Features-blueStroke" d="M1421.9 426.2c0-5.2 6.9-10.7 6.9-10.7s6.9 5.7 6.9 10.7c0 3.8-3.1 6.9-6.9 6.9s-6.9-3.1-6.9-6.9z"/><path class="Features-dropletLine" d="M1428.7 432.6v344"/></g><g class="Features-dropletLineGroup" id="Features-dropletLine-7"><path class="Features-blueStroke" d="M1487.9 305.2c0-5.2 6.9-10.7 6.9-10.7s6.9 5.7 6.9 10.7c0 3.8-3.1 6.9-6.9 6.9s-6.9-3.1-6.9-6.9z"/><path class="Features-dropletLine" d="M1494.7 318.6v458"/></g><g class="Features-dropletLineGroup" id="Features-dropletLine-8"><path class="Features-blueStroke" d="M1633.9 154.2c0-5.2 6.9-10.7 6.9-10.7s6.9 5.7 6.9 10.7c0 3.8-3.1 6.9-6.9 6.9s-6.9-3.1-6.9-6.9z"/><path class="Features-dropletLine" d="M1640.7 167.6v609"/></g><g class="Features-dropletLineGroup" id="Features-dropletLine-9"><path class="Features-blueStroke" d="M1851.7 60.2c0-5.2 6.9-10.7 6.9-10.7s6.9 5.7 6.9 10.7c0 3.8-3.1 6.9-6.9 6.9s-6.9-3-6.9-6.9z"/><path class="Features-dropletLine" d="M1858.5 73.6v703"/></g><path class="Features-whiteWaveLine" d="M2001.6 65.4s-39.8-1.6-85.2 43.7-57.8 106.8-150 126.3c-85.6 18.1-84.8 136-143.8 136-82 0-106 160-193 160-37 0-41-22-91-22-68 0-86 81-149 81-43 0-49-27-92-27s-65 32-116 32-62-41-140-41c-103 0-143 98-196 98-40 0-39-30-72-30-32 0-37 37-87 37-54.3 0-81-68-123-68-43 0-65.3 85.3-124 91-41.2 4-51.2-15-77.2-9-39.5 9.1-43.1 65.6-91 69-42 3-43.6-30-69.8-30" id="Features-whiteWave"/><path class="Features-blueStroke" d="M2001.6 65.4s-39.8-1.6-85.2 43.7-57.8 106.8-150 126.3c-85.6 18.1-84.8 136-143.8 136-82 0-106 160-193 160-37 0-41-22-91-22-68 0-86 81-149 81-43 0-49-27-92-27s-65 32-116 32-62-41-140-41c-103 0-143 98-196 98-40 0-39-30-72-30-32 0-37 37-87 37-54.3 0-81-68-123-68-43 0-65.3 85.3-124 91-41.2 4-51.2-15-77.2-9-39.5 9.1-43.1 65.6-91 69-42 3-43.6-30-69.8-30" id="Features-blueLine"/><g id="Features-dots"><circle class="Features-dot" r="2.5"/><circle class="Features-dot" r="3.6"/><circle class="Features-dot" r="2.5"/><circle class="Features-dot" r="2.5"/><circle class="Features-dot" r="2.5"/><circle class="Features-dot" r="3.6"/><circle class="Features-dot" r="2.5"/><circle class="Features-dot" r="3.6"/><circle class="Features-dot" r="2.5"/><circle class="Features-dot" r="3.6"/><circle class="Features-dot" r="2.5"/></g><g id="Features-gradientBorders"><path class="Features-leftGradientShape" d="M1.4 3.9h360.7v772.5H1.4z"/><path class="Features-rightGradientShape" d="M1640.9 3.9h360.7v772.5h-360.7z"/></g></svg>