<?xml version="1.0" encoding="utf-8"?>
<!-- Generator: Adobe Illustrator 16.0.0, SVG Export Plug-In . SVG Version: 6.00 Build 0)  -->
<!DOCTYPE svg PUBLIC "-//W3C//DTD SVG 1.1//EN" "http://www.w3.org/Graphics/SVG/1.1/DTD/svg11.dtd">
<svg version="1.1" id="Шар_1" xmlns="http://www.w3.org/2000/svg" xmlns:xlink="http://www.w3.org/1999/xlink" x="0px" y="0px"
	 width="10px" height="7.273px" viewBox="0 0 10 7.273" enable-background="new 0 0 10 7.273" xml:space="preserve">
<path d="M9.809,0.144C9.705,0.051,9.571,0,9.431,0C9.269,0,9.114,0.07,9.006,0.191L3.911,5.924l-2.988-2.39
	C0.823,3.454,0.697,3.41,0.568,3.41c-0.174,0-0.336,0.078-0.444,0.213c-0.195,0.245-0.155,0.603,0.089,0.799l3.409,2.727
	c0.101,0.08,0.227,0.125,0.355,0.125c0.162,0,0.317-0.07,0.425-0.191l5.454-6.136c0.101-0.113,0.151-0.259,0.143-0.411
	S9.922,0.245,9.809,0.144z"/>
</svg>
