<?xml version="1.0" encoding="utf-8"?>
<!-- Generator: Adobe Illustrator 16.0.0, SVG Export Plug-In . SVG Version: 6.00 Build 0)  -->
<!DOCTYPE svg PUBLIC "-//W3C//DTD SVG 1.1//EN" "http://www.w3.org/Graphics/SVG/1.1/DTD/svg11.dtd">
<svg version="1.1" id="Шар_1" xmlns="http://www.w3.org/2000/svg" xmlns:xlink="http://www.w3.org/1999/xlink" x="0px" y="0px"
	 width="24px" height="28.8px" viewBox="0 0 24 28.8" enable-background="new 0 0 24 28.8" xml:space="preserve">
<g>
	<path id="YouTube_4_" fill="#8E8E8E" d="M20.301,21.065h-1.58l0.008-0.918c0-0.406,0.334-0.741,0.744-0.741h0.101
		c0.409,0,0.746,0.335,0.746,0.741L20.301,21.065z M14.373,19.099c-0.401,0-0.729,0.27-0.729,0.6v4.465
		c0,0.329,0.328,0.598,0.729,0.598c0.402,0,0.73-0.269,0.73-0.598v-4.465C15.104,19.368,14.775,19.099,14.373,19.099z M24,16.601
		v8.495c0,2.036-1.766,3.704-3.926,3.704H3.927C1.768,28.8,0,27.132,0,25.096v-8.495c0-2.036,1.768-3.704,3.927-3.704h16.147
		C22.234,12.897,24,14.564,24,16.601z M5.005,26.017l-0.003-8.947l2.002,0.002v-1.326L1.67,15.736v1.304l1.665,0.004v8.973H5.005z
		 M11.005,18.403H9.336v4.776c0,0.692,0.042,1.037-0.002,1.159c-0.137,0.37-0.746,0.766-0.984,0.04
		c-0.04-0.126-0.004-0.509-0.006-1.165l-0.006-4.811h-1.66l0.005,4.734c0.003,0.726-0.017,1.267,0.007,1.514
		c0.04,0.435,0.025,0.941,0.429,1.229c0.75,0.541,2.189-0.081,2.55-0.854l-0.004,0.987l1.341,0.001V18.403L11.005,18.403z
		 M16.343,23.874l-0.004-3.977c-0.001-1.516-1.135-2.423-2.673-1.197l0.006-2.957l-1.666,0.003l-0.01,10.205l1.373-0.02l0.124-0.635
		C15.244,26.903,16.346,25.802,16.343,23.874z M21.565,23.348l-1.251,0.006c-0.001,0.051-0.002,0.107-0.004,0.169v0.698
		c0,0.375-0.309,0.679-0.684,0.679h-0.245c-0.375,0-0.685-0.304-0.685-0.679v-0.076v-0.769v-0.99h2.865v-1.078
		c0-0.79-0.02-1.577-0.084-2.028c-0.207-1.425-2.206-1.65-3.218-0.921c-0.317,0.228-0.559,0.532-0.699,0.943
		c-0.142,0.409-0.214,0.969-0.214,1.68v2.371C17.35,27.296,22.137,26.737,21.565,23.348z M15.147,10.474
		c0.086,0.209,0.22,0.379,0.401,0.507c0.178,0.126,0.408,0.189,0.683,0.189c0.241,0,0.452-0.064,0.64-0.199
		c0.185-0.133,0.34-0.332,0.467-0.598l-0.031,0.654h1.861v-7.91h-1.465v6.155c0,0.334-0.275,0.607-0.61,0.607
		s-0.609-0.272-0.609-0.607V3.117h-1.528v5.335c0,0.68,0.012,1.134,0.033,1.363C15.01,10.042,15.061,10.262,15.147,10.474z
		 M9.51,6.006c0-0.76,0.062-1.352,0.189-1.78c0.127-0.425,0.354-0.769,0.684-1.026c0.328-0.26,0.749-0.388,1.262-0.388
		c0.43,0,0.799,0.083,1.107,0.249c0.309,0.167,0.547,0.382,0.713,0.649c0.168,0.268,0.282,0.542,0.344,0.824
		c0.062,0.285,0.093,0.716,0.093,1.295V7.83c0,0.732-0.03,1.273-0.087,1.616s-0.178,0.663-0.365,0.962
		c-0.188,0.294-0.426,0.516-0.716,0.656c-0.295,0.143-0.63,0.212-1.011,0.212c-0.423,0-0.781-0.058-1.075-0.18
		c-0.295-0.121-0.523-0.305-0.687-0.547c-0.164-0.245-0.278-0.542-0.349-0.888c-0.07-0.346-0.104-0.866-0.104-1.56L9.51,6.006
		L9.51,6.006z M10.967,9.149c0,0.448,0.333,0.813,0.74,0.813c0.406,0,0.737-0.365,0.737-0.813V4.938
		c0-0.448-0.331-0.814-0.737-0.814c-0.407,0-0.74,0.366-0.74,0.814V9.149z M5.819,11.276h1.754l0.003-6.068l2.073-5.197H7.73
		l-1.104,3.86L5.51,0h-1.9l2.206,5.21L5.819,11.276z"/>
</g>
</svg>
