<?xml version="1.0" encoding="utf-8"?>
<!-- Generator: Adobe Illustrator 16.0.0, SVG Export Plug-In . SVG Version: 6.00 Build 0)  -->
<!DOCTYPE svg PUBLIC "-//W3C//DTD SVG 1.1//EN" "http://www.w3.org/Graphics/SVG/1.1/DTD/svg11.dtd">
<svg version="1.1" id="Шар_1" xmlns="http://www.w3.org/2000/svg" xmlns:xlink="http://www.w3.org/1999/xlink" x="0px" y="0px"
	 width="19px" height="18.312px" viewBox="0 0 19 18.312" enable-background="new 0 0 19 18.312" xml:space="preserve">
<path fill="#00A0FE" d="M11.665,12.24c0.478-0.126,1.018,0.053,1.303,0.462c0.876,1.206,1.743,2.418,2.616,3.625
	c0.215,0.292,0.321,0.677,0.225,1.032c-0.097,0.428-0.436,0.793-0.863,0.907c-0.47,0.137-1.016-0.042-1.304-0.441
	c-0.84-1.157-1.672-2.319-2.511-3.478c-0.167-0.224-0.329-0.469-0.364-0.752C10.676,13.003,11.09,12.393,11.665,12.24L11.665,12.24z
	 M9.228,0.037C9.906-0.15,10.666,0.401,10.713,1.1c0.003,1.574-0.003,3.148,0.003,4.723C10.71,6.374,10.255,6.861,9.723,6.96
	C9.025,7.116,8.288,6.522,8.279,5.81c-0.003-1.525,0-3.052-0.001-4.577C8.268,0.676,8.686,0.156,9.228,0.037L9.228,0.037z
	 M0.946,6.087c0.301-0.079,0.61,0.004,0.896,0.103c1.196,0.396,2.396,0.783,3.592,1.178C5.712,7.458,6.01,7.524,6.245,7.709
	c0.438,0.339,0.597,0.986,0.354,1.486C6.362,9.728,5.705,10.061,5.145,9.86C3.72,9.4,2.297,8.932,0.875,8.466
	C0.567,8.373,0.307,8.155,0.151,7.875C-0.246,7.203,0.182,6.243,0.946,6.087L0.946,6.087z M17.391,6.118
	C18,5.899,18.718,6.264,18.926,6.87c0.212,0.545-0.045,1.204-0.547,1.489c-0.144,0.077-0.3,0.124-0.454,0.176
	c-1.359,0.438-2.714,0.891-4.073,1.328c-0.715,0.255-1.547-0.365-1.559-1.113c-0.031-0.381,0.143-0.764,0.43-1.012
	c0.234-0.202,0.545-0.272,0.833-0.367C14.834,6.955,16.111,6.534,17.391,6.118L17.391,6.118z M6.699,12.239
	c0.708-0.21,1.506,0.354,1.535,1.092c0.036,0.327-0.078,0.651-0.283,0.904c-0.858,1.184-1.708,2.374-2.567,3.556
	c-0.185,0.246-0.447,0.444-0.755,0.496c-0.486,0.105-1.033-0.125-1.282-0.559c-0.266-0.422-0.238-1.005,0.067-1.398
	c0.855-1.185,1.711-2.37,2.565-3.557C6.151,12.522,6.401,12.318,6.699,12.239L6.699,12.239z"/>
</svg>
