<?xml version="1.0" encoding="utf-8"?>
<!-- Generator: Adobe Illustrator 16.0.0, SVG Export Plug-In . SVG Version: 6.00 Build 0)  -->
<!DOCTYPE svg PUBLIC "-//W3C//DTD SVG 1.1//EN" "http://www.w3.org/Graphics/SVG/1.1/DTD/svg11.dtd">
<svg version="1.1" id="Шар_1" xmlns="http://www.w3.org/2000/svg" xmlns:xlink="http://www.w3.org/1999/xlink" x="0px" y="0px"
	 width="18px" height="18px" viewBox="0 0 18 18" enable-background="new 0 0 18 18" xml:space="preserve">
<g id="layer1" transform="translate(0 -.99990)">
	<g id="g4384" transform="matrix(.90995 0 0 .92063 -440.87 568.84)">
		<ellipse id="path3338-9" fill="#FFCB08" cx="494.39" cy="-607.019" rx="9.891" ry="9.776"/>
		<path id="path4177-1-8" fill="#0C4EA3" d="M499.673-609.904c-1.205,0-2.182,0.967-2.182,2.162
			c0.001,0.003,0.001,0.007,0.001,0.011c-3.9,1.124-7.728,3.975-9.626,8.064c1.015,0.89,2.21,1.544,3.5,1.961
			c0.722-4.281,3.895-7.538,6.654-8.628c0.413,0.478,1.017,0.753,1.653,0.754c1.204,0,2.181-0.967,2.181-2.162
			C501.854-608.936,500.877-609.904,499.673-609.904L499.673-609.904z"/>
		<path id="path3338" fill="#0C4EA3" d="M492.798-614.022c-1.205,0-2.182,0.967-2.182,2.162c0.001,0.049,0.002,0.098,0.005,0.145
			c-2.71,1.06-4.774,2.82-6.119,4.947c0.059,1.896,0.643,3.735,1.736,5.287c0.1-3.477,1.852-6.808,4.842-9.047
			c0.413,0.523,1.046,0.829,1.717,0.829c1.204,0,2.181-0.968,2.181-2.162C494.979-613.055,494.002-614.022,492.798-614.022
			L492.798-614.022z"/>
	</g>
</g>
</svg>
