<?xml version="1.0" encoding="utf-8"?>
<!-- Generator: Adobe Illustrator 16.0.0, SVG Export Plug-In . SVG Version: 6.00 Build 0)  -->
<!DOCTYPE svg PUBLIC "-//W3C//DTD SVG 1.1//EN" "http://www.w3.org/Graphics/SVG/1.1/DTD/svg11.dtd">
<svg version="1.1" id="Шар_1" xmlns="http://www.w3.org/2000/svg" xmlns:xlink="http://www.w3.org/1999/xlink" x="0px" y="0px"
	 width="11px" height="10.02px" viewBox="0 0 11 10.02" enable-background="new 0 0 11 10.02" xml:space="preserve">
<path d="M10.843,4.617L6.367,0.142c-0.189-0.189-0.583-0.189-0.774,0C5.492,0.244,5.437,0.381,5.437,0.529
	c0,0.149,0.056,0.287,0.156,0.387L9.127,4.45H0.555C0.248,4.45,0,4.699,0,5.004C0,5.31,0.248,5.558,0.555,5.558h8.572L5.593,9.091
	c-0.209,0.209-0.209,0.564,0,0.775c0.205,0.204,0.57,0.204,0.774,0l4.476-4.475C11.053,5.181,11.053,4.827,10.843,4.617z"/>
</svg>
