<?xml version="1.0" encoding="utf-8"?>
<!-- Generator: Adobe Illustrator 16.0.0, SVG Export Plug-In . SVG Version: 6.00 Build 0)  -->
<!DOCTYPE svg PUBLIC "-//W3C//DTD SVG 1.1//EN" "http://www.w3.org/Graphics/SVG/1.1/DTD/svg11.dtd">
<svg version="1.1" id="Шар_1" xmlns="http://www.w3.org/2000/svg" xmlns:xlink="http://www.w3.org/1999/xlink" x="0px" y="0px"
	 width="21px" height="20.981px" viewBox="0 0 21 20.981" enable-background="new 0 0 21 20.981" xml:space="preserve">
<g>
	<path fill="#000100" d="M20.519,3.08h-6.107V0.48c0-0.274-0.205-0.48-0.479-0.48H7.067c-0.274,0-0.48,0.207-0.48,0.48V3.08H0.48
		C0.206,3.08,0,3.287,0,3.56c0,0.261,0.22,0.48,0.48,0.48h1.083l1.979,16.519c0.023,0.243,0.23,0.422,0.482,0.422h12.95
		c0.25,0,0.449-0.176,0.484-0.428l1.977-16.513h1.084c0.27,0,0.48-0.211,0.48-0.48C21,3.287,20.794,3.08,20.519,3.08z M7.548,0.96
		h5.905V3.08H7.548V0.96z M16.556,20.038H4.443L2.539,4.041H18.46L16.556,20.038z"/>
	<path fill="#000100" d="M7.977,7.087c-0.273,0-0.48,0.206-0.48,0.48v9.111c0,0.272,0.207,0.479,0.48,0.479s0.48-0.206,0.48-0.479
		V7.568C8.457,7.293,8.25,7.087,7.977,7.087z"/>
	<path fill="#000100" d="M13.023,7.087c-0.273,0-0.48,0.206-0.48,0.48v9.111c0,0.26,0.221,0.479,0.48,0.479
		c0.273,0,0.48-0.206,0.48-0.479V7.568C13.503,7.293,13.296,7.087,13.023,7.087z"/>
</g>
</svg>
