<?xml version="1.0" encoding="utf-8"?>
<!-- Generator: Adobe Illustrator 16.0.0, SVG Export Plug-In . SVG Version: 6.00 Build 0)  -->
<!DOCTYPE svg PUBLIC "-//W3C//DTD SVG 1.1//EN" "http://www.w3.org/Graphics/SVG/1.1/DTD/svg11.dtd">
<svg version="1.1" id="Шар_1" xmlns="http://www.w3.org/2000/svg" xmlns:xlink="http://www.w3.org/1999/xlink" x="0px" y="0px"
	 width="62px" height="61.472px" viewBox="0 0 62 61.472" enable-background="new 0 0 62 61.472" xml:space="preserve">
<g>
	<path fill="#1A1A18" d="M23.188,16.653c-3.53,0-6.393,2.838-6.393,6.337s2.862,6.337,6.393,6.337c3.529,0,6.391-2.837,6.391-6.337
		S26.718,16.653,23.188,16.653z M23.188,26.511c-1.962,0-3.551-1.576-3.551-3.521s1.591-3.521,3.551-3.521
		c1.962,0,3.552,1.576,3.552,3.521S25.148,26.511,23.188,26.511z"/>
	<path fill="#1A1A18" d="M38.812,32.144c-3.529,0-6.391,2.839-6.391,6.338c0,3.5,2.861,6.338,6.391,6.338
		c3.531,0,6.393-2.838,6.393-6.338C45.204,34.982,42.341,32.144,38.812,32.144z M38.812,42.002c-1.962,0-3.55-1.575-3.55-3.521
		s1.59-3.521,3.55-3.521c1.962,0,3.552,1.575,3.552,3.521S40.772,42.002,38.812,42.002z"/>
	<path fill="#E2000F" d="M61.59,29.757l-7.864-7.799V9.612c0-0.779-0.637-1.408-1.421-1.408H39.85l-7.865-7.797
		c-0.545-0.541-1.428-0.541-1.973,0l-7.864,7.797H9.694c-0.784,0-1.421,0.629-1.421,1.408v12.348l-7.865,7.798
		c-0.545,0.54-0.545,1.416,0,1.957l7.865,7.797v12.35c0,0.777,0.637,1.408,1.421,1.408h12.455l7.863,7.798
		c0.547,0.54,1.43,0.54,1.973,0l7.865-7.798h12.455c0.785,0,1.421-0.631,1.421-1.408v-12.35l7.865-7.797
		C62.136,31.173,62.136,30.297,61.59,29.757z M50.885,38.903v11.549H39.235l-8.012,7.943l-8.01-7.943H11.115V38.456l-7.788-7.72
		l7.788-7.72V11.021h12.099l8.01-7.944l8.012,7.944h11.649v11.549l8.237,8.167L50.885,38.903z"/>
	<g>
		<g>
			<path fill="#1A1A18" d="M45.673,15.798c-0.551-0.55-1.44-0.55-1.991,0L15.8,43.681c-0.551,0.551-0.551,1.441,0,1.992
				c0.55,0.55,1.44,0.55,1.99,0L45.673,17.79C46.222,17.241,46.222,16.349,45.673,15.798z"/>
		</g>
	</g>
</g>
</svg>
