<?xml version="1.0" encoding="utf-8"?>
<!-- Generator: Adobe Illustrator 16.0.0, SVG Export Plug-In . SVG Version: 6.00 Build 0)  -->
<!DOCTYPE svg PUBLIC "-//W3C//DTD SVG 1.1//EN" "http://www.w3.org/Graphics/SVG/1.1/DTD/svg11.dtd">
<svg version="1.1" id="Шар_1" xmlns="http://www.w3.org/2000/svg" xmlns:xlink="http://www.w3.org/1999/xlink" x="0px" y="0px"
	 width="18px" height="17.548px" viewBox="0 0 18 17.548" enable-background="new 0 0 18 17.548" xml:space="preserve">
<path fill-rule="evenodd" clip-rule="evenodd" fill="#EC1C2E" d="M12.47,0.677c-1.59,0.35-2.788,1.775-2.788,3.482
	c0,0.036,0.009,0.08,0.011,0.116c2.514,0.539,3.782,2.246,3.782,4.498c0,2.53-2.054,4.582-4.564,4.582s-4.856-2.111-4.856-5.24
	c0-3.821,3.25-7.405,7.882-7.519c0.084-0.002,0.216,0.001,0.352,0.007C11.269,0.214,10.16,0,9.001,0C4.03,0,0,3.929,0,8.773
	c0,4.847,4.03,8.774,9.001,8.774C13.97,17.548,18,13.62,18,8.773C18,5.127,15.718,2,12.47,0.677L12.47,0.677z"/>
</svg>
