<?xml version="1.0" encoding="utf-8"?>
<!-- Generator: Adobe Illustrator 16.0.0, SVG Export Plug-In . SVG Version: 6.00 Build 0)  -->
<!DOCTYPE svg PUBLIC "-//W3C//DTD SVG 1.1//EN" "http://www.w3.org/Graphics/SVG/1.1/DTD/svg11.dtd">
<svg version="1.1" id="Шар_1" xmlns="http://www.w3.org/2000/svg" xmlns:xlink="http://www.w3.org/1999/xlink" x="0px" y="0px"
	 width="13px" height="24.045px" viewBox="0 0 13 24.045" enable-background="new 0 0 13 24.045" xml:space="preserve">
<g>
	<path fill="#8E8E8E" d="M12.51,0.005L9.394,0C5.89,0,3.626,2.323,3.626,5.919v2.727H0.49C0.22,8.646,0,8.866,0,9.137v3.952
		c0,0.271,0.22,0.49,0.49,0.49h3.136v9.977c0,0.27,0.22,0.49,0.49,0.49h4.09c0.271,0,0.49-0.221,0.49-0.49v-9.977h3.665
		c0.271,0,0.491-0.219,0.491-0.49l0.002-3.952c0-0.131-0.053-0.255-0.144-0.347c-0.093-0.093-0.218-0.145-0.347-0.145H8.696V6.332
		c0-1.11,0.266-1.676,1.713-1.676h2.101c0.271,0,0.49-0.22,0.49-0.489V0.495C13,0.226,12.78,0.005,12.51,0.005z"/>
</g>
</svg>
