<?xml version="1.0" encoding="utf-8"?>
<!-- Generator: Adobe Illustrator 16.0.0, SVG Export Plug-In . SVG Version: 6.00 Build 0)  -->
<!DOCTYPE svg PUBLIC "-//W3C//DTD SVG 1.1//EN" "http://www.w3.org/Graphics/SVG/1.1/DTD/svg11.dtd">
<svg version="1.1" id="Шар_1" xmlns="http://www.w3.org/2000/svg" xmlns:xlink="http://www.w3.org/1999/xlink" x="0px" y="0px"
	 width="13px" height="13.918px" viewBox="0 0 13 13.918" enable-background="new 0 0 13 13.918" xml:space="preserve">
<path d="M12.712,0.919h-1.553v-0.63C11.159,0.129,11.03,0,10.871,0h-1.61C9.102,0,8.972,0.129,8.972,0.289v0.63H4.028v-0.63
	C4.028,0.129,3.898,0,3.739,0h-1.61C1.97,0,1.841,0.129,1.841,0.289v0.63H0.288C0.129,0.919,0,1.049,0,1.208V13.63
	c0,0.159,0.129,0.288,0.288,0.288h12.424c0.159,0,0.288-0.129,0.288-0.288V1.208C13,1.049,12.871,0.919,12.712,0.919z M12.422,4.028
	v9.314H0.578V4.028H12.422z M2.418,1.84V0.577h1.033V1.84H2.418z M9.549,1.84V0.577h1.033V1.84H9.549z M2.129,2.417h1.61
	c0.159,0,0.289-0.129,0.289-0.289V1.497h4.943v0.631c0,0.159,0.13,0.289,0.289,0.289h1.61c0.159,0,0.288-0.129,0.288-0.289V1.497
	h1.263V3.45H0.578V1.497h1.263v0.631C1.841,2.288,1.97,2.417,2.129,2.417z"/>
</svg>
