<?xml version="1.0" encoding="utf-8"?>
<!-- Generator: Adobe Illustrator 16.0.0, SVG Export Plug-In . SVG Version: 6.00 Build 0)  -->
<!DOCTYPE svg PUBLIC "-//W3C//DTD SVG 1.1//EN" "http://www.w3.org/Graphics/SVG/1.1/DTD/svg11.dtd">
<svg version="1.1" id="Шар_1" xmlns="http://www.w3.org/2000/svg" xmlns:xlink="http://www.w3.org/1999/xlink" x="0px" y="0px"
	 width="28px" height="15.846px" viewBox="0 0 28 15.846" enable-background="new 0 0 28 15.846" xml:space="preserve">
<g id="XMLID_1_">
	<path id="XMLID_807_" fill="#8E8E8E" d="M24.097,10.075c0.929,0.908,1.909,1.762,2.742,2.76c0.368,0.443,0.717,0.9,0.983,1.416
		c0.378,0.732,0.035,1.537-0.621,1.58l-4.079-0.002c-1.052,0.088-1.891-0.336-2.597-1.055c-0.564-0.576-1.088-1.188-1.631-1.783
		c-0.223-0.242-0.456-0.471-0.734-0.652c-0.557-0.361-1.04-0.25-1.358,0.33c-0.324,0.592-0.397,1.246-0.429,1.904
		c-0.044,0.959-0.334,1.213-1.299,1.256c-2.062,0.098-4.02-0.215-5.838-1.254c-1.603-0.918-2.845-2.213-3.927-3.678
		c-2.106-2.854-3.72-5.99-5.169-9.213c-0.326-0.727-0.088-1.116,0.714-1.13c1.33-0.026,2.661-0.024,3.993-0.002
		C5.389,0.56,5.748,0.87,5.956,1.381c0.721,1.771,1.602,3.454,2.707,5.016c0.295,0.416,0.595,0.831,1.022,1.124
		c0.473,0.324,0.833,0.217,1.056-0.311c0.142-0.334,0.203-0.694,0.235-1.052c0.105-1.231,0.119-2.46-0.066-3.688
		c-0.113-0.766-0.544-1.261-1.309-1.406c-0.39-0.073-0.332-0.219-0.143-0.441C9.786,0.239,10.094,0,10.709,0h4.609
		c0.726,0.144,0.888,0.47,0.986,1.2l0.004,5.121c-0.008,0.282,0.142,1.121,0.65,1.309c0.408,0.133,0.677-0.193,0.921-0.451
		c1.104-1.172,1.892-2.557,2.596-3.99c0.312-0.63,0.581-1.284,0.841-1.938c0.192-0.485,0.495-0.725,1.042-0.714l4.438,0.004
		c0.131,0,0.265,0.002,0.392,0.023c0.748,0.128,0.952,0.449,0.722,1.18c-0.364,1.146-1.072,2.1-1.764,3.059
		c-0.74,1.024-1.531,2.013-2.266,3.043C23.207,8.786,23.26,9.258,24.097,10.075L24.097,10.075z"/>
</g>
</svg>
