<?xml version="1.0" encoding="utf-8"?>
<!-- Generator: Adobe Illustrator 16.0.0, SVG Export Plug-In . SVG Version: 6.00 Build 0)  -->
<!DOCTYPE svg PUBLIC "-//W3C//DTD SVG 1.1//EN" "http://www.w3.org/Graphics/SVG/1.1/DTD/svg11.dtd">
<svg version="1.1" id="Шар_1" xmlns="http://www.w3.org/2000/svg" xmlns:xlink="http://www.w3.org/1999/xlink" x="0px" y="0px"
	 width="179px" height="62.622px" viewBox="0 0 179 62.622" enable-background="new 0 0 179 62.622" xml:space="preserve">
<g>
	<path fill-rule="evenodd" clip-rule="evenodd" fill="#FFFFFF" d="M98.833,62.41v-9.998h1.982v1.412
		c0.405-0.487,0.949-0.883,1.626-1.179c0.678-0.298,1.447-0.446,2.312-0.446c0.962,0,1.753,0.154,2.366,0.46
		c0.615,0.308,1.05,0.735,1.302,1.287c1.036-1.166,2.378-1.747,4.034-1.747c1.296,0,2.296,0.273,2.99,0.822
		c0.697,0.549,1.049,1.395,1.049,2.533v6.855h-2.208v-6.293c0-0.675-0.075-1.162-0.217-1.461c-0.143-0.299-0.401-0.537-0.781-0.72
		c-0.377-0.183-0.82-0.272-1.326-0.272c-0.92,0-1.682,0.234-2.287,0.699c-0.607,0.469-0.907,1.217-0.907,2.246v5.801h-2.208v-6.488
		c0-0.752-0.18-1.316-0.539-1.693c-0.359-0.376-0.95-0.564-1.765-0.564c-0.619,0-1.192,0.125-1.719,0.375
		c-0.526,0.251-0.907,0.617-1.146,1.102c-0.234,0.481-0.352,1.18-0.352,2.087v5.183H98.833L98.833,62.41z M128.236,61.158
		c-0.819,0.536-1.609,0.912-2.367,1.133c-0.756,0.222-1.566,0.331-2.437,0.331c-1.43,0-2.53-0.267-3.299-0.803
		c-0.77-0.532-1.155-1.217-1.155-2.048c0-0.488,0.147-0.935,0.436-1.34c0.293-0.404,0.673-0.725,1.142-0.969
		c0.473-0.244,0.999-0.431,1.589-0.556c0.435-0.087,1.091-0.171,1.965-0.255c1.781-0.16,3.099-0.355,3.939-0.58
		c0.008-0.23,0.013-0.379,0.013-0.441c0-0.686-0.209-1.171-0.628-1.453c-0.563-0.383-1.404-0.572-2.517-0.572
		c-1.041,0-1.811,0.142-2.305,0.422c-0.496,0.278-0.861,0.773-1.1,1.486l-2.157-0.23c0.196-0.711,0.518-1.285,0.97-1.723
		s1.104-0.771,1.957-1.008c0.849-0.234,1.84-0.354,2.961-0.354c1.111,0,2.019,0.1,2.717,0.302c0.694,0.202,1.209,0.453,1.535,0.759
		c0.327,0.305,0.557,0.69,0.69,1.156c0.07,0.287,0.108,0.809,0.108,1.557v2.248c0,1.569,0.047,2.562,0.138,2.982
		c0.088,0.422,0.271,0.822,0.54,1.207h-2.309C128.441,62.055,128.299,61.637,128.236,61.158L128.236,61.158z M128.062,57.402
		c-0.804,0.249-2.008,0.461-3.613,0.635c-0.911,0.1-1.556,0.213-1.932,0.337c-0.377,0.126-0.665,0.309-0.869,0.546
		c-0.205,0.24-0.31,0.508-0.31,0.803c0,0.446,0.222,0.822,0.669,1.121s1.1,0.449,1.956,0.449c0.85,0,1.605-0.141,2.271-0.427
		c0.661-0.282,1.15-0.672,1.46-1.162c0.238-0.383,0.355-0.944,0.355-1.687L128.062,57.402L128.062,57.402z M133.66,62.41v-9.998
		h1.981v1.531c0.506-0.711,0.975-1.179,1.405-1.404c0.431-0.227,0.903-0.34,1.418-0.34c0.743,0,1.5,0.18,2.27,0.537l-0.786,1.563
		c-0.535-0.231-1.069-0.347-1.605-0.347c-0.48,0-0.911,0.111-1.292,0.334c-0.381,0.221-0.652,0.529-0.814,0.924
		c-0.247,0.602-0.369,1.26-0.369,1.975v5.225H133.66L133.66,62.41z M142.048,62.41V48.616h2.207v7.856l5.219-4.061h2.852
		l-4.968,3.715l5.47,6.283h-2.718l-4.324-5.108l-1.53,1.144v3.965H142.048L142.048,62.41z M163.464,59.174l2.283,0.232
		c-0.355,1.017-1.021,1.81-1.99,2.371c-0.97,0.562-2.207,0.845-3.718,0.845c-1.897,0-3.403-0.45-4.516-1.349
		c-1.112-0.896-1.668-2.156-1.668-3.779c0-1.676,0.561-2.979,1.685-3.904c1.125-0.928,2.584-1.391,4.379-1.391
		c1.735,0,3.152,0.453,4.252,1.361c1.099,0.908,1.651,2.188,1.651,3.834c0,0.1-0.004,0.251-0.012,0.449h-9.697
		c0.084,1.096,0.485,1.938,1.213,2.518c0.723,0.582,1.63,0.874,2.713,0.874c0.808,0,1.497-0.165,2.066-0.491
		C162.678,60.417,163.13,59.893,163.464,59.174L163.464,59.174z M156.238,56.457h7.251c-0.097-0.841-0.377-1.471-0.832-1.892
		c-0.698-0.651-1.61-0.979-2.727-0.979c-1.012,0-1.86,0.26-2.55,0.78C156.694,54.887,156.313,55.584,156.238,56.457L156.238,56.457z
		 M173.328,60.898l0.302,1.496c-0.62,0.1-1.176,0.15-1.661,0.15c-0.798,0-1.417-0.096-1.86-0.292
		c-0.438-0.196-0.748-0.45-0.928-0.767c-0.181-0.318-0.269-0.986-0.269-2.004v-5.762h-1.631v-1.309h1.631v-2.473l2.208-1.019v3.491
		h2.208v1.309h-2.208v5.857c0,0.484,0.037,0.796,0.117,0.934c0.074,0.139,0.201,0.248,0.377,0.332
		c0.175,0.08,0.426,0.121,0.752,0.121C172.609,60.965,172.932,60.943,173.328,60.898z"/>
	<path fill-rule="evenodd" clip-rule="evenodd" fill="#E2000F" d="M0,45.667V12.559h12.5c2.196,0,3.876,0.108,5.04,0.316
		c1.626,0.271,2.991,0.786,4.092,1.542c1.102,0.762,1.988,1.826,2.659,3.19c0.67,1.364,1.002,2.868,1.002,4.508
		c0,2.805-0.894,5.187-2.689,7.128c-1.788,1.95-5.033,2.921-9.718,2.921H4.393v13.502H0L0,45.667z M4.393,28.281h8.554
		c2.835,0,4.839-0.524,6.034-1.58c1.187-1.056,1.78-2.535,1.78-4.455c0-1.379-0.347-2.565-1.048-3.552
		c-0.701-0.986-1.626-1.641-2.767-1.958c-0.74-0.193-2.104-0.293-4.084-0.293H4.393V28.281L4.393,28.281z M30.657,45.667V2.965
		l4.393-2.891v41.709h16.276v3.884H30.657L30.657,45.667z M56.651,45.667V12.559h23.905v3.884H61.043v10.173h18.265V30.5H61.043
		v11.283h20.299v3.884H56.651L56.651,45.667z M87.354,59.061V12.559h4.501l17.37,25.987V3.536l4.208-3.462v45.593h-4.5
		L91.562,19.681v42.632L87.354,59.061L87.354,59.061z M148.004,45.667l12.7-33.108h4.817L179,45.667h-4.986l-3.83-10.034h-13.94
		l-3.592,10.034H148.004L148.004,45.667z M157.529,32.072h11.282l-3.452-9.178c-1.04-2.79-1.826-5.095-2.373-6.913
		c-0.455,2.157-1.063,4.276-1.826,6.373L157.529,32.072z"/>
	<polygon fill-rule="evenodd" clip-rule="evenodd" fill="#E2000F" points="120.612,45.672 120.612,0 125.001,3.546 125.001,28.974 
		141.446,12.559 147.38,12.559 133.493,25.984 147.981,45.667 142.201,45.667 130.418,28.959 125.001,34.199 125.001,45.667 	"/>
</g>
</svg>
